<svg id="Graphic_elements" data-name="Graphic elements" xmlns="http://www.w3.org/2000/svg" xmlns:xlink="http://www.w3.org/1999/xlink" viewBox="0 0 1200 1200"><defs><style>.cls-1{fill:#97ddff;}.cls-2{fill:url(#linear-gradient);}.cls-3{fill:#a0defa;}.cls-4{fill:#6acbf9;}</style><linearGradient id="linear-gradient" x1="974.12" y1="-1167.15" x2="590.39" y2="-1805.05" gradientTransform="matrix(1.13, 0, 0, -1.13, -235.07, -1076.45)" gradientUnits="userSpaceOnUse"><stop offset="0" stop-color="#69caf8"/><stop offset="1" stop-color="#6bccf9"/></linearGradient></defs><g id="layer1"><g id="g4176"><path id="path3350" class="cls-1" d="M100.79,162.78H350.44c42.12-2.21,49.86,15.93,61.11,29.16l39.5,49.81c3.21,4,6.32,5.51,13.13,5.48h635c31.61,0,50.79,21.28,50.79,50.78v703.63a26.6,26.6,0,0,1-26.66,26.66H76.66A26.6,26.6,0,0,1,50,1001.64V213.57C50,186.17,70.58,162.78,100.79,162.78Z"/><path id="rect3347" class="cls-2" d="M100.79,301.52h998.42c31.61,0,50.79,21.28,50.79,50.78v649.34a26.6,26.6,0,0,1-26.66,26.66H76.66A26.6,26.6,0,0,1,50,1001.64V352.3C50,324.91,70.58,301.52,100.79,301.52Z"/><rect id="rect4358" class="cls-3" x="99.11" y="966.57" width="1001.79" height="8.42"/><rect id="rect4360" class="cls-3" x="99.11" y="939.42" width="1001.79" height="8.42"/><rect id="rect4362" class="cls-3" x="99.11" y="912.28" width="1001.79" height="8.42"/></g><rect id="rect3001" class="cls-4" x="55.69" y="854.23" width="1079.26" height="167.55"/></g></svg>